<?xml version="1.0" encoding="UTF-8"?>
<svg version="1.1" xmlns="http://www.w3.org/2000/svg" width="1024" height="1024">
<path d="M0 0 C10.00488457 6.35422101 15.54133524 14.25681822 19.26953125 25.44140625 C20.28737038 38.80417997 18.9874099 49.13192271 10.14453125 59.81640625 C4.09753944 66.1064932 -3.63230079 71.07155967 -12.5 71.609375 C-18.3967605 71.64722327 -23.13925954 71.2305932 -28.73046875 69.44140625 C-32.02266303 69.27293534 -32.02266303 69.27293534 -34.73046875 69.44140625 C-35.07078125 70.27671875 -35.07078125 70.27671875 -35.41796875 71.12890625 C-37.69326922 75.13776899 -41.04320902 77.88861038 -44.60546875 80.75390625 C-46.90095009 82.63033978 -48.78258044 84.60551231 -50.68190002 86.88021851 C-55.14538937 92.03269949 -60.02794952 96.73129656 -64.92733192 101.46139336 C-67.9484202 104.37845078 -70.95914751 107.30618943 -73.97190857 110.23184204 C-74.6116017 110.85245081 -75.25129484 111.47305958 -75.91037261 112.11247468 C-84.13840712 120.09867092 -92.31348184 128.13891537 -100.48937976 136.17842412 C-108.43562177 143.99190382 -116.39813187 151.7866732 -124.41821289 159.52441406 C-130.80780813 165.68925657 -137.15695864 171.89267664 -143.46217352 178.14383447 C-146.79258534 181.4428879 -150.13925075 184.72003945 -153.53571892 187.95116043 C-170.11835638 202.45883279 -170.11835638 202.45883279 -177.59755039 222.13217735 C-177.47618185 229.97041211 -177.47618185 229.97041211 -173.73046875 236.44140625 C-170.33449812 236.65817033 -167.9726843 236.52214477 -164.73046875 235.44140625 C-164.03908432 234.1207209 -163.37578185 232.78520431 -162.73046875 231.44140625 C-161.54782878 230.14729907 -160.31340243 228.89944142 -159.04296875 227.69140625 C-156.35042523 225.07137288 -153.79220496 222.42566442 -151.35546875 219.56640625 C-148.61425426 216.37458116 -145.72360987 213.39837648 -142.73046875 210.44140625 C-139.7786385 207.52514022 -136.92658016 204.5953479 -134.23046875 201.44140625 C-131.53435734 198.2874646 -128.682299 195.35767228 -125.73046875 192.44140625 C-122.84057047 189.58616942 -120.0459513 186.72640429 -117.41796875 183.62890625 C-113.59151881 179.14018613 -109.38484476 175.04333225 -105.17260742 170.9206543 C-102.73726634 168.52280774 -100.6330676 166.29530452 -98.73046875 163.44140625 C-98.07046875 163.44140625 -97.41046875 163.44140625 -96.73046875 163.44140625 C-96.51777344 162.9 -96.30507813 162.35859375 -96.0859375 161.80078125 C-94.24026448 158.58814002 -91.69079541 156.23595032 -89.04296875 153.69140625 C-85.71134025 150.43038179 -82.41851677 147.20285743 -79.41796875 143.62890625 C-75.3068117 138.78687684 -70.72256787 134.40937758 -66.21313477 129.94360352 C-62.9852081 126.73498408 -59.81614285 123.52747597 -56.85546875 120.06640625 C-54.39037626 117.19884968 -51.92216179 114.34406037 -49.35546875 111.56640625 C-48.68773437 110.82648438 -48.02 110.0865625 -47.33203125 109.32421875 C-39.98642619 104.0080301 -30.05877167 105.1688171 -21.41796875 105.25390625 C-20.03450716 105.26081944 -18.65104346 105.26732096 -17.26757812 105.2734375 C-0.75038591 105.37555633 15.76192083 105.89960619 32.26953125 106.44140625 C31.93953125 107.43140625 31.60953125 108.42140625 31.26953125 109.44140625 C30.60953125 109.44140625 29.94953125 109.44140625 29.26953125 109.44140625 C29.26953125 110.10140625 29.26953125 110.76140625 29.26953125 111.44140625 C27.64850157 113.15249314 25.97449662 114.81393931 24.26953125 116.44140625 C23.18671875 117.58609375 23.18671875 117.58609375 22.08203125 118.75390625 C20.26953125 120.44140625 20.26953125 120.44140625 18.26953125 120.44140625 C18.06175049 120.97515869 17.85396973 121.50891113 17.63989258 122.05883789 C15.72132046 125.3945488 13.06799468 127.88806403 10.34375 130.5625 C9.75914505 131.14427505 9.1745401 131.72605011 8.57221985 132.32545471 C6.70514423 134.18136467 4.83124691 136.03020977 2.95703125 137.87890625 C1.70722205 139.11867683 0.45786807 140.3589065 -0.79101562 141.59960938 C-3.09655215 143.88885019 -5.40472639 146.1753576 -7.71606445 148.45874023 C-12.42218088 153.11330857 -16.93998958 157.78143013 -21.1796875 162.8671875 C-21.69144531 163.38667969 -22.20320313 163.90617188 -22.73046875 164.44140625 C-23.39046875 164.44140625 -24.05046875 164.44140625 -24.73046875 164.44140625 C-24.96677002 165.0044043 -25.20307129 165.56740234 -25.4465332 166.14746094 C-27.02853981 168.97395535 -28.95910884 170.87745224 -31.2734375 173.14453125 C-32.63758789 174.49224609 -32.63758789 174.49224609 -34.02929688 175.8671875 C-34.99181406 176.80897556 -35.95470694 177.7503798 -36.91796875 178.69140625 C-44.25656352 185.81925281 -44.25656352 185.81925281 -51.15625 193.36328125 C-56.49454859 199.60673862 -62.49125098 205.25643806 -68.33300781 211.0234375 C-73.85856862 216.48462942 -79.34644507 221.92726207 -84.37084961 227.86303711 C-86.36571574 230.17885854 -88.56986145 232.28079895 -90.73046875 234.44140625 C-91.73748018 235.62296633 -92.73710042 236.81085319 -93.73046875 238.00390625 C-95.48038239 240.07886746 -97.02714187 241.67722334 -99.16796875 243.37890625 C-102.82492531 246.32231031 -105.71380894 249.85966608 -108.73046875 253.44140625 C-106.1023184 258.25462387 -103.23720392 262.60349924 -99.79296875 266.87890625 C-99.31843262 267.47598389 -98.84389648 268.07306152 -98.35498047 268.68823242 C-94.18568258 273.91847376 -89.94297385 279.08926818 -85.70922852 284.26733398 C-81.22105412 289.78092376 -76.90474958 295.4135801 -72.61035156 301.07861328 C-68.34140536 306.69043991 -63.9327707 312.1747193 -59.46704102 317.63061523 C-55.52547011 322.44901739 -51.65771738 327.31914424 -47.82373047 332.22338867 C-44.48848376 336.48643598 -41.1177114 340.71957831 -37.73046875 344.94140625 C-33.43049543 350.30085327 -29.1744558 355.69222884 -24.94311523 361.10595703 C-21.45160946 365.5582963 -17.87950299 369.94047349 -14.29296875 374.31640625 C-9.36807932 380.33109878 -4.66367286 386.47835451 -0.03710938 392.72436523 C3.67878761 397.71714161 7.6059822 402.48863544 11.62890625 407.23828125 C17.08703171 413.7728937 22.1284702 420.65709165 27.26953125 427.44140625 C28.66145431 429.27771015 30.05635373 431.11177124 31.45703125 432.94140625 C31.96621094 433.61171875 32.47539063 434.28203125 33 434.97265625 C34.22383504 436.57865481 34.22383504 436.57865481 36.26953125 437.44140625 C36.26953125 438.43140625 36.26953125 439.42140625 36.26953125 440.44140625 C25.12567821 440.53404238 13.98191661 440.60513887 2.83775711 440.64865494 C-2.33681579 440.66953938 -7.51112547 440.69787283 -12.68554688 440.74316406 C-17.67816 440.78659101 -22.67051978 440.8105369 -27.66330719 440.82091522 C-29.56914509 440.82831225 -31.47496896 440.84275679 -33.38069916 440.86432648 C-36.04805075 440.89331871 -38.71435241 440.89736403 -41.38183594 440.89550781 C-42.17161835 440.90988892 -42.96140076 440.92427002 -43.77511597 440.93908691 C-47.28912932 440.91258584 -49.29283041 440.7822984 -52.10821533 438.58929443 C-52.64355896 437.88049133 -53.17890259 437.17168823 -53.73046875 436.44140625 C-54.49101563 435.51070312 -55.2515625 434.58 -56.03515625 433.62109375 C-56.89466362 432.52166513 -57.75126289 431.41995894 -58.60546875 430.31640625 C-59.07525146 429.7145752 -59.54503418 429.11274414 -60.02905273 428.49267578 C-62.76601393 424.98306684 -65.48827121 421.46210842 -68.2109375 417.94140625 C-74.11214083 410.31804301 -80.05258524 402.76832801 -86.2734375 395.40234375 C-89.65301058 391.32966268 -92.9084809 387.16400961 -96.15307617 382.98339844 C-97.93336005 380.69525723 -99.67809887 378.49377613 -101.73046875 376.44140625 C-102.61990403 375.2857069 -103.4928545 374.11726031 -104.35546875 372.94140625 C-110.13993353 365.17330008 -116.3155205 357.71004899 -122.41796875 350.19140625 C-122.96461182 349.51787109 -123.51125488 348.84433594 -124.07446289 348.15039062 C-126.51884405 345.14352297 -128.97144291 342.14544542 -131.4609375 339.17578125 C-133.15958794 337.12921445 -134.78739545 335.08612586 -136.35546875 332.94140625 C-139.29871729 328.99668873 -142.28105647 325.08384751 -145.29296875 321.19140625 C-145.75203613 320.58876953 -146.21110352 319.98613281 -146.68408203 319.36523438 C-149.87250801 315.26631915 -153.07367991 311.5484016 -157.98046875 309.50390625 C-162.85213523 309.39318656 -167.68418575 310.62677793 -171.38671875 313.91015625 C-175.35798288 318.62026022 -175.97941088 322.11787941 -176.2890625 328.07788086 C-176.33131454 328.87303824 -176.37356659 329.66819563 -176.417099 330.48744869 C-176.87123265 339.99547974 -176.84316808 349.50219984 -176.80563354 359.01877022 C-176.7926678 362.3347805 -176.78630574 365.65075004 -176.78149414 368.96678162 C-176.77018892 375.97917522 -176.75087798 382.99153404 -176.73046875 390.00390625 C-176.70684903 398.19494808 -176.68652958 406.38597197 -176.67453003 414.57703972 C-176.66803724 417.84830614 -176.6555433 421.11951505 -176.64282227 424.39076233 C-176.63919378 426.37452138 -176.63584156 428.35828096 -176.6328125 430.34204102 C-176.62764618 431.25459152 -176.62247986 432.16714203 -176.61715698 433.10734558 C-176.61697658 435.21903695 -176.66796015 437.33064024 -176.73046875 439.44140625 C-178.56835413 441.27929163 -181.52810879 440.61445948 -183.99438477 440.64672852 C-184.64802002 440.65662811 -185.30165527 440.66652771 -185.97509766 440.67672729 C-188.14481939 440.70842259 -190.31456305 440.73313117 -192.484375 440.7578125 C-193.98510827 440.77837512 -195.48583565 440.7993714 -196.98655701 440.82078552 C-200.94358568 440.8760778 -204.90066724 440.92545536 -208.85778809 440.97363281 C-212.89287035 441.02379575 -216.92787547 441.07950893 -220.96289062 441.13476562 C-228.88535152 441.24243465 -236.80787679 441.34386004 -244.73046875 441.44140625 C-245.85546875 434.81640625 -245.85546875 434.81640625 -244.73046875 431.44140625 C-245.68824219 431.88871094 -246.64601563 432.33601563 -247.6328125 432.796875 C-267.84481872 442.05396871 -288.49990465 446.56910112 -310.73046875 447.44140625 C-312.27927734 447.52068359 -312.27927734 447.52068359 -313.859375 447.6015625 C-352.70494035 448.67671052 -390.06549544 435.50416921 -418.73046875 409.44140625 C-419.38144531 408.87292969 -420.03242188 408.30445313 -420.703125 407.71875 C-443.88228773 386.29309367 -454.14791068 354.08536002 -455.73046875 323.44140625 C-455.90620315 316.43367193 -455.8572745 309.42217113 -455.84399414 302.4128418 C-455.84371161 300.31242881 -455.84387129 298.21201572 -455.84443665 296.11160278 C-455.84472204 290.44518919 -455.83886715 284.77879702 -455.83186269 279.11238837 C-455.82558606 273.17736913 -455.82502195 267.24234932 -455.82383728 261.30732727 C-455.82073663 250.08443547 -455.81254038 238.86155347 -455.80248779 227.63866597 C-455.79128724 214.85505402 -455.78580629 202.07144159 -455.78079236 189.28782594 C-455.77035665 163.00568062 -455.75278183 136.72354399 -455.73046875 110.44140625 C-452.30196615 109.29857205 -449.76221903 109.35954719 -446.14770508 109.41967773 C-445.4840242 109.42928528 -444.82034332 109.43889282 -444.1365509 109.4487915 C-441.94509146 109.48174566 -439.75383361 109.52209142 -437.5625 109.5625 C-436.04221811 109.58680463 -434.52192877 109.61064802 -433.00163269 109.63404846 C-429.00175499 109.6968553 -425.0020091 109.76593154 -421.0022583 109.83630371 C-416.92018635 109.90701789 -412.838021 109.97181639 -408.75585938 110.03710938 C-400.74729241 110.16607788 -392.73885501 110.30166823 -384.73046875 110.44140625 C-384.72826891 112.08909248 -384.72826891 112.08909248 -384.72602463 113.77006531 C-384.68936483 140.54715945 -384.62983042 167.32412914 -384.54656601 194.10112 C-384.50682416 207.05048825 -384.474407 219.99979616 -384.45947266 232.94921875 C-384.446431 244.2411725 -384.41940216 255.53299321 -384.37585568 266.82487202 C-384.35329753 272.79908915 -384.33755468 278.77314251 -384.3385849 284.74740601 C-384.33933484 290.38141278 -384.32125019 296.01505833 -384.28930092 301.64897156 C-384.28084798 303.70630747 -384.2790203 305.76368413 -384.28466606 307.82102966 C-384.33661086 329.67716503 -380.59438786 348.66678856 -364.62890625 364.7734375 C-357.83565882 371.02652105 -350.61031923 375.03644674 -341.73046875 377.44140625 C-338.73046875 378.44140625 -338.73046875 378.44140625 -336.43359375 379.4296875 C-322.34517019 384.70266684 -302.64024695 383.57459799 -288.92578125 377.66357422 C-272.77246436 370.21738962 -259.90448922 358.4821745 -253.42103386 341.59379292 C-249.91260251 330.65854475 -249.30956605 320.10667508 -249.40576172 308.74536133 C-249.40825248 307.11850632 -249.40939189 305.49164878 -249.40930176 303.86479187 C-249.41198842 300.383703 -249.42410929 296.90282657 -249.44384384 293.42179298 C-249.47528528 287.8682463 -249.48520662 282.31477732 -249.4927063 276.76115417 C-249.50716217 267.92692253 -249.53602272 259.09280551 -249.57095349 250.25863332 C-249.63261838 234.56963634 -249.67113098 218.88057907 -249.70254624 203.19149512 C-249.71406918 197.72250056 -249.73214886 192.25358307 -249.75593913 186.78462881 C-249.86218822 161.32199215 -249.44130864 135.8940779 -248.73046875 110.44140625 C-244.72023333 109.57987455 -241.12329961 109.35000234 -237.01245117 109.41967773 C-236.35823181 109.42928528 -235.70401245 109.43889282 -235.02996826 109.4487915 C-232.8818421 109.48159778 -230.73393119 109.52199892 -228.5859375 109.5625 C-227.09093469 109.58681912 -225.59592406 109.61066177 -224.10090637 109.63404846 C-220.17667698 109.69671119 -216.25258702 109.76582771 -212.32849121 109.83630371 C-208.31996988 109.9071486 -204.31135014 109.9718687 -200.30273438 110.03710938 C-192.44520348 110.16589194 -184.58780933 110.30149494 -176.73046875 110.44140625 C-176.57674959 118.36017372 -176.42856811 126.27901696 -176.28750515 134.19801903 C-176.22183277 137.87490904 -176.15423507 141.55174286 -176.08227539 145.22851562 C-176.01293347 148.7751221 -175.94859922 152.32178695 -175.88777351 155.86854935 C-175.86365089 157.22339821 -175.83770728 158.57821589 -175.80993462 159.93299484 C-175.77141916 161.82682068 -175.73990977 163.72078511 -175.70874023 165.61474609 C-175.67876198 167.23357193 -175.67876198 167.23357193 -175.6481781 168.88510132 C-175.73046875 171.44140625 -175.73046875 171.44140625 -176.73046875 173.44140625 C-176.07046875 173.44140625 -175.41046875 173.44140625 -174.73046875 173.44140625 C-174.73046875 172.78140625 -174.73046875 172.12140625 -174.73046875 171.44140625 C-174.07046875 171.44140625 -173.41046875 171.44140625 -172.73046875 171.44140625 C-172.50681641 170.89323242 -172.28316406 170.34505859 -172.05273438 169.78027344 C-170.33333846 166.73894906 -168.03422876 164.45907004 -165.57421875 162.01953125 C-165.07128296 161.51468201 -164.56834717 161.00983276 -164.0501709 160.48968506 C-162.99016889 159.42832628 -161.92765387 158.36947206 -160.86279297 157.31298828 C-159.22906829 155.69001501 -157.60633581 154.05659557 -155.984375 152.421875 C-154.95246399 151.39128479 -153.91993316 150.36131473 -152.88671875 149.33203125 C-152.40021851 148.84148254 -151.91371826 148.35093384 -151.41247559 147.84552002 C-147.96041224 144.44140625 -147.96041224 144.44140625 -145.73046875 144.44140625 C-145.40046875 143.45140625 -145.07046875 142.46140625 -144.73046875 141.44140625 C-144.07046875 141.44140625 -143.41046875 141.44140625 -142.73046875 141.44140625 C-142.07046875 140.12140625 -141.41046875 138.80140625 -140.73046875 137.44140625 C-140.07046875 137.44140625 -139.41046875 137.44140625 -138.73046875 137.44140625 C-138.46234375 136.80203125 -138.19421875 136.16265625 -137.91796875 135.50390625 C-136.73046875 133.44140625 -136.73046875 133.44140625 -133.73046875 132.44140625 C-133.40046875 131.45140625 -133.07046875 130.46140625 -132.73046875 129.44140625 C-131.15088749 127.87625027 -131.15088749 127.87625027 -129.14454651 126.21446228 C-124.95853399 122.66022982 -121.01841261 118.9227433 -117.10522461 115.07250977 C-116.39043945 114.37232727 -115.6756543 113.67214478 -114.93920898 112.95074463 C-108.42769609 106.56410899 -101.94352994 100.14957563 -95.46755123 93.72692966 C-91.12593569 89.42123526 -86.77584195 85.12493685 -82.40454102 80.84936523 C-78.16094499 76.69838506 -73.93965457 72.52591436 -69.73336983 68.33714104 C-68.12986268 66.74774069 -66.51859031 65.16613492 -64.89951897 63.59259224 C-62.64189894 61.3954771 -60.41404839 59.17187093 -58.19116211 56.93969727 C-57.18071587 55.97543068 -57.18071587 55.97543068 -56.14985657 54.99168396 C-52.81080393 51.68931177 -52.81080393 51.68931177 -51.55014229 47.3330822 C-51.80385943 44.9172207 -51.80385943 44.9172207 -52.73046875 41.44140625 C-53.63874023 28.62180311 -52.44567589 18.73042684 -43.91796875 8.50390625 C-33.03084681 -2.79250599 -14.54933619 -7.1135596 0 0 Z M-29.54296875 24.56640625 C-31.50450474 29.31538811 -32.67584032 34.48781934 -31.0703125 39.50390625 C-28.45566782 44.41562743 -24.98390135 47.69026205 -19.73046875 49.44140625 C-14.4728093 49.83821074 -11.16944033 49.33638771 -6.73046875 46.44140625 C-3.04077078 42.71192717 -0.59163666 39.56448814 -0.41796875 34.25390625 C-0.49163798 29.1625438 -1.68778445 26.52500887 -4.73046875 22.44140625 C-8.39749693 18.95325749 -11.30443226 18.14860724 -16.23046875 17.94140625 C-22.25954138 18.17896482 -25.60966039 19.95494128 -29.54296875 24.56640625 Z " fill="#010101" transform="translate(681.73046875,190.55859375)"/>
<path d="M0 0 C10.00488457 6.35422101 15.54133524 14.25681822 19.26953125 25.44140625 C20.28737038 38.80417997 18.9874099 49.13192271 10.14453125 59.81640625 C4.09753944 66.1064932 -3.63230079 71.07155967 -12.5 71.609375 C-18.3967605 71.64722327 -23.13925954 71.2305932 -28.73046875 69.44140625 C-32.02266303 69.27293534 -32.02266303 69.27293534 -34.73046875 69.44140625 C-35.07078125 70.27671875 -35.07078125 70.27671875 -35.41796875 71.12890625 C-37.69326922 75.13776899 -41.04320902 77.88861038 -44.60546875 80.75390625 C-46.90095009 82.63033978 -48.78258044 84.60551231 -50.68190002 86.88021851 C-55.14538937 92.03269949 -60.02794952 96.73129656 -64.92733192 101.46139336 C-67.9484202 104.37845078 -70.95914751 107.30618943 -73.97190857 110.23184204 C-74.6116017 110.85245081 -75.25129484 111.47305958 -75.91037261 112.11247468 C-84.13840712 120.09867092 -92.31348184 128.13891537 -100.48937976 136.17842412 C-108.43562177 143.99190382 -116.39813187 151.7866732 -124.41821289 159.52441406 C-130.80780813 165.68925657 -137.15695864 171.89267664 -143.46217352 178.14383447 C-146.79258534 181.4428879 -150.13925075 184.72003945 -153.53571892 187.95116043 C-170.11835638 202.45883279 -170.11835638 202.45883279 -177.59755039 222.13217735 C-177.47618185 229.97041211 -177.47618185 229.97041211 -173.73046875 236.44140625 C-170.33449812 236.65817033 -167.9726843 236.52214477 -164.73046875 235.44140625 C-164.03908432 234.1207209 -163.37578185 232.78520431 -162.73046875 231.44140625 C-161.54782878 230.14729907 -160.31340243 228.89944142 -159.04296875 227.69140625 C-156.35042523 225.07137288 -153.79220496 222.42566442 -151.35546875 219.56640625 C-148.61425426 216.37458116 -145.72360987 213.39837648 -142.73046875 210.44140625 C-139.7786385 207.52514022 -136.92658016 204.5953479 -134.23046875 201.44140625 C-131.53435734 198.2874646 -128.682299 195.35767228 -125.73046875 192.44140625 C-122.84057047 189.58616942 -120.0459513 186.72640429 -117.41796875 183.62890625 C-113.59151881 179.14018613 -109.38484476 175.04333225 -105.17260742 170.9206543 C-102.73726634 168.52280774 -100.6330676 166.29530452 -98.73046875 163.44140625 C-98.07046875 163.44140625 -97.41046875 163.44140625 -96.73046875 163.44140625 C-96.51777344 162.9 -96.30507813 162.35859375 -96.0859375 161.80078125 C-94.24026448 158.58814002 -91.69079541 156.23595032 -89.04296875 153.69140625 C-85.71134025 150.43038179 -82.41851677 147.20285743 -79.41796875 143.62890625 C-75.3068117 138.78687684 -70.72256787 134.40937758 -66.21313477 129.94360352 C-62.9852081 126.73498408 -59.81614285 123.52747597 -56.85546875 120.06640625 C-54.39037626 117.19884968 -51.92216179 114.34406037 -49.35546875 111.56640625 C-48.68773437 110.82648438 -48.02 110.0865625 -47.33203125 109.32421875 C-39.98642619 104.0080301 -30.05877167 105.1688171 -21.41796875 105.25390625 C-20.03450716 105.26081944 -18.65104346 105.26732096 -17.26757812 105.2734375 C-0.75038591 105.37555633 15.76192083 105.89960619 32.26953125 106.44140625 C31.93953125 107.43140625 31.60953125 108.42140625 31.26953125 109.44140625 C30.60953125 109.44140625 29.94953125 109.44140625 29.26953125 109.44140625 C29.26953125 110.10140625 29.26953125 110.76140625 29.26953125 111.44140625 C27.64850157 113.15249314 25.97449662 114.81393931 24.26953125 116.44140625 C23.18671875 117.58609375 23.18671875 117.58609375 22.08203125 118.75390625 C20.26953125 120.44140625 20.26953125 120.44140625 18.26953125 120.44140625 C18.06175049 120.97515869 17.85396973 121.50891113 17.63989258 122.05883789 C15.72132046 125.3945488 13.06799468 127.88806403 10.34375 130.5625 C9.75914505 131.14427505 9.1745401 131.72605011 8.57221985 132.32545471 C6.70514423 134.18136467 4.83124691 136.03020977 2.95703125 137.87890625 C1.70722205 139.11867683 0.45786807 140.3589065 -0.79101562 141.59960938 C-3.09655215 143.88885019 -5.40472639 146.1753576 -7.71606445 148.45874023 C-12.42218088 153.11330857 -16.93998958 157.78143013 -21.1796875 162.8671875 C-21.69144531 163.38667969 -22.20320312 163.90617188 -22.73046875 164.44140625 C-23.39046875 164.44140625 -24.05046875 164.44140625 -24.73046875 164.44140625 C-24.96677002 165.0044043 -25.20307129 165.56740234 -25.4465332 166.14746094 C-27.02853981 168.97395535 -28.95910884 170.87745224 -31.2734375 173.14453125 C-32.63758789 174.49224609 -32.63758789 174.49224609 -34.02929688 175.8671875 C-34.99181406 176.80897556 -35.95470694 177.7503798 -36.91796875 178.69140625 C-44.25656352 185.81925281 -44.25656352 185.81925281 -51.15625 193.36328125 C-56.49454859 199.60673862 -62.49125098 205.25643806 -68.33300781 211.0234375 C-73.85856862 216.48462942 -79.34644507 221.92726207 -84.37084961 227.86303711 C-86.36571574 230.17885854 -88.56986145 232.28079895 -90.73046875 234.44140625 C-91.73748018 235.62296633 -92.73710042 236.81085319 -93.73046875 238.00390625 C-95.48038239 240.07886746 -97.02714187 241.67722334 -99.16796875 243.37890625 C-102.82492531 246.32231031 -105.71380894 249.85966608 -108.73046875 253.44140625 C-106.1023184 258.25462387 -103.23720392 262.60349924 -99.79296875 266.87890625 C-99.31843262 267.47598389 -98.84389648 268.07306152 -98.35498047 268.68823242 C-94.18568258 273.91847376 -89.94297385 279.08926818 -85.70922852 284.26733398 C-81.22105412 289.78092376 -76.90474958 295.4135801 -72.61035156 301.07861328 C-68.34140536 306.69043991 -63.9327707 312.1747193 -59.46704102 317.63061523 C-55.52547011 322.44901739 -51.65771738 327.31914424 -47.82373047 332.22338867 C-44.48848376 336.48643598 -41.1177114 340.71957831 -37.73046875 344.94140625 C-33.43049543 350.30085327 -29.1744558 355.69222884 -24.94311523 361.10595703 C-21.45160946 365.5582963 -17.87950299 369.94047349 -14.29296875 374.31640625 C-9.36807932 380.33109878 -4.66367286 386.47835451 -0.03710938 392.72436523 C3.67878761 397.71714161 7.6059822 402.48863544 11.62890625 407.23828125 C17.08703171 413.7728937 22.1284702 420.65709165 27.26953125 427.44140625 C28.66145431 429.27771015 30.05635373 431.11177124 31.45703125 432.94140625 C31.96621094 433.61171875 32.47539063 434.28203125 33 434.97265625 C34.22383504 436.57865481 34.22383504 436.57865481 36.26953125 437.44140625 C36.26953125 438.43140625 36.26953125 439.42140625 36.26953125 440.44140625 C25.12567821 440.53404238 13.98191661 440.60513887 2.83775711 440.64865494 C-2.33681579 440.66953938 -7.51112547 440.69787283 -12.68554688 440.74316406 C-17.67816 440.78659101 -22.67051978 440.8105369 -27.66330719 440.82091522 C-29.56914509 440.82831225 -31.47496896 440.84275679 -33.38069916 440.86432648 C-36.04805075 440.89331871 -38.71435241 440.89736403 -41.38183594 440.89550781 C-42.17161835 440.90988892 -42.96140076 440.92427002 -43.77511597 440.93908691 C-47.28912932 440.91258584 -49.29283041 440.7822984 -52.10821533 438.58929443 C-52.64355896 437.88049133 -53.17890259 437.17168823 -53.73046875 436.44140625 C-54.49101563 435.51070312 -55.2515625 434.58 -56.03515625 433.62109375 C-56.89466362 432.52166513 -57.75126289 431.41995894 -58.60546875 430.31640625 C-59.07525146 429.7145752 -59.54503418 429.11274414 -60.02905273 428.49267578 C-62.76601393 424.98306684 -65.48827121 421.46210842 -68.2109375 417.94140625 C-74.11214083 410.31804301 -80.05258524 402.76832801 -86.2734375 395.40234375 C-89.65301058 391.32966268 -92.9084809 387.16400961 -96.15307617 382.98339844 C-97.93336005 380.69525723 -99.67809887 378.49377613 -101.73046875 376.44140625 C-102.61990403 375.2857069 -103.4928545 374.11726031 -104.35546875 372.94140625 C-110.13993353 365.17330008 -116.3155205 357.71004899 -122.41796875 350.19140625 C-123.23793335 349.18110352 -123.23793335 349.18110352 -124.07446289 348.15039062 C-126.51884405 345.14352297 -128.97144291 342.14544542 -131.4609375 339.17578125 C-133.15958794 337.12921445 -134.78739545 335.08612586 -136.35546875 332.94140625 C-139.29871729 328.99668873 -142.28105647 325.08384751 -145.29296875 321.19140625 C-145.75203613 320.58876953 -146.21110352 319.98613281 -146.68408203 319.36523438 C-149.87250801 315.26631915 -153.07367991 311.5484016 -157.98046875 309.50390625 C-162.85213523 309.39318656 -167.68418575 310.62677793 -171.38671875 313.91015625 C-175.35798288 318.62026022 -175.97941088 322.11787941 -176.2890625 328.07788086 C-176.33131454 328.87303824 -176.37356659 329.66819563 -176.417099 330.48744869 C-176.87123265 339.99547974 -176.84316808 349.50219984 -176.80563354 359.01877022 C-176.7926678 362.3347805 -176.78630574 365.65075004 -176.78149414 368.96678162 C-176.77018892 375.97917522 -176.75087798 382.99153404 -176.73046875 390.00390625 C-176.70684903 398.19494808 -176.68652958 406.38597197 -176.67453003 414.57703972 C-176.66803724 417.84830614 -176.6555433 421.11951505 -176.64282227 424.39076233 C-176.63919378 426.37452138 -176.63584156 428.35828096 -176.6328125 430.34204102 C-176.62764618 431.25459152 -176.62247986 432.16714203 -176.61715698 433.10734558 C-176.61697658 435.21903695 -176.66796015 437.33064024 -176.73046875 439.44140625 C-178.56835413 441.27929163 -181.52810879 440.61445948 -183.99438477 440.64672852 C-184.64802002 440.65662811 -185.30165527 440.66652771 -185.97509766 440.67672729 C-188.14481939 440.70842259 -190.31456305 440.73313117 -192.484375 440.7578125 C-193.98510827 440.77837512 -195.48583565 440.7993714 -196.98655701 440.82078552 C-200.94358568 440.8760778 -204.90066724 440.92545536 -208.85778809 440.97363281 C-212.89287035 441.02379575 -216.92787547 441.07950893 -220.96289062 441.13476562 C-228.88535152 441.24243465 -236.80787679 441.34386004 -244.73046875 441.44140625 C-245.06046875 439.79140625 -245.39046875 438.14140625 -245.73046875 436.44140625 C-244.74046875 437.10140625 -243.75046875 437.76140625 -242.73046875 438.44140625 C-222.27046875 438.77140625 -201.81046875 439.10140625 -180.73046875 439.44140625 C-180.73046875 331.20140625 -180.73046875 222.96140625 -180.73046875 111.44140625 C-181.72046875 110.94640625 -181.72046875 110.94640625 -182.73046875 110.44140625 C-180.75046875 110.44140625 -178.77046875 110.44140625 -176.73046875 110.44140625 C-176.57674959 118.36017372 -176.42856811 126.27901696 -176.28750515 134.19801903 C-176.22183277 137.87490904 -176.15423507 141.55174286 -176.08227539 145.22851562 C-176.01293347 148.7751221 -175.94859922 152.32178695 -175.88777351 155.86854935 C-175.86365089 157.22339821 -175.83770728 158.57821589 -175.80993462 159.93299484 C-175.77141916 161.82682068 -175.73990977 163.72078511 -175.70874023 165.61474609 C-175.68875473 166.69396332 -175.66876923 167.77318054 -175.6481781 168.88510132 C-175.73046875 171.44140625 -175.73046875 171.44140625 -176.73046875 173.44140625 C-176.07046875 173.44140625 -175.41046875 173.44140625 -174.73046875 173.44140625 C-174.73046875 172.78140625 -174.73046875 172.12140625 -174.73046875 171.44140625 C-174.07046875 171.44140625 -173.41046875 171.44140625 -172.73046875 171.44140625 C-172.50681641 170.89323242 -172.28316406 170.34505859 -172.05273438 169.78027344 C-170.33333846 166.73894906 -168.03422876 164.45907004 -165.57421875 162.01953125 C-165.07128296 161.51468201 -164.56834717 161.00983276 -164.0501709 160.48968506 C-162.99016889 159.42832628 -161.92765387 158.36947206 -160.86279297 157.31298828 C-159.22906829 155.69001501 -157.60633581 154.05659557 -155.984375 152.421875 C-154.95246399 151.39128479 -153.91993316 150.36131473 -152.88671875 149.33203125 C-152.40021851 148.84148254 -151.91371826 148.35093384 -151.41247559 147.84552002 C-147.96041224 144.44140625 -147.96041224 144.44140625 -145.73046875 144.44140625 C-145.40046875 143.45140625 -145.07046875 142.46140625 -144.73046875 141.44140625 C-144.07046875 141.44140625 -143.41046875 141.44140625 -142.73046875 141.44140625 C-142.07046875 140.12140625 -141.41046875 138.80140625 -140.73046875 137.44140625 C-140.07046875 137.44140625 -139.41046875 137.44140625 -138.73046875 137.44140625 C-138.46234375 136.80203125 -138.19421875 136.16265625 -137.91796875 135.50390625 C-136.73046875 133.44140625 -136.73046875 133.44140625 -133.73046875 132.44140625 C-133.40046875 131.45140625 -133.07046875 130.46140625 -132.73046875 129.44140625 C-131.15088749 127.87625027 -131.15088749 127.87625027 -129.14454651 126.21446228 C-124.95853399 122.66022982 -121.01841261 118.9227433 -117.10522461 115.07250977 C-116.39043945 114.37232727 -115.6756543 113.67214478 -114.93920898 112.95074463 C-108.42769609 106.56410899 -101.94352994 100.14957563 -95.46755123 93.72692966 C-91.12593569 89.42123526 -86.77584195 85.12493685 -82.40454102 80.84936523 C-78.16094499 76.69838506 -73.93965457 72.52591436 -69.73336983 68.33714104 C-68.12986268 66.74774069 -66.51859031 65.16613492 -64.89951897 63.59259224 C-62.64189894 61.3954771 -60.41404839 59.17187093 -58.19116211 56.93969727 C-57.18071587 55.97543068 -57.18071587 55.97543068 -56.14985657 54.99168396 C-52.81080393 51.68931177 -52.81080393 51.68931177 -51.55014229 47.3330822 C-51.80385943 44.9172207 -51.80385943 44.9172207 -52.73046875 41.44140625 C-53.63874023 28.62180311 -52.44567589 18.73042684 -43.91796875 8.50390625 C-33.03084681 -2.79250599 -14.54933619 -7.1135596 0 0 Z M-29.54296875 24.56640625 C-31.50450474 29.31538811 -32.67584032 34.48781934 -31.0703125 39.50390625 C-28.45566782 44.41562743 -24.98390135 47.69026205 -19.73046875 49.44140625 C-14.4728093 49.83821074 -11.16944033 49.33638771 -6.73046875 46.44140625 C-3.04077078 42.71192717 -0.59163666 39.56448814 -0.41796875 34.25390625 C-0.49163798 29.1625438 -1.68778445 26.52500887 -4.73046875 22.44140625 C-8.39749693 18.95325749 -11.30443226 18.14860724 -16.23046875 17.94140625 C-22.25954138 18.17896482 -25.60966039 19.95494128 -29.54296875 24.56640625 Z " fill="#FEFEFE" transform="translate(681.73046875,190.55859375)"/>
<path d="M0 0 C1 4 1 4 1 4 Z " fill="#FFFFFF" transform="translate(224,496)"/>
<path d="M0 0 C2 1 2 1 2 1 Z " fill="#FFFFFF" transform="translate(380,638)"/>
<path d="M0 0 C2 1 2 1 2 1 Z " fill="#FFFFFF" transform="translate(329,635)"/>
<path d="" fill="#FFFFFF" transform="translate(0,0)"/>
<path d="" fill="#FFFFFF" transform="translate(0,0)"/>
<path d="" fill="#FFFFFF" transform="translate(0,0)"/>
<path d="" fill="#FFFFFF" transform="translate(0,0)"/>
<path d="M0 0 C2 1 2 1 2 1 Z " fill="#FFFFFF" transform="translate(479,299)"/>
<path d="M0 0 C2 1 2 1 2 1 Z " fill="#FFFFFF" transform="translate(289,299)"/>
<path d="M0 0 C2 1 2 1 2 1 Z " fill="#FFFFFF" transform="translate(667,263)"/>
<path d="" fill="#FFFFFF" transform="translate(0,0)"/>
<path d="" fill="#FFFFFF" transform="translate(0,0)"/>
<path d="" fill="#FFFFFF" transform="translate(0,0)"/>
<path d="" fill="#FFFFFF" transform="translate(0,0)"/>
<path d="" fill="#FFFFFF" transform="translate(0,0)"/>
<path d="" fill="#FFFFFF" transform="translate(0,0)"/>
<path d="" fill="#FFFFFF" transform="translate(0,0)"/>
<path d="" fill="#FFFFFF" transform="translate(0,0)"/>
<path d="" fill="#FFFFFF" transform="translate(0,0)"/>
<path d="" fill="#FFFFFF" transform="translate(0,0)"/>
<path d="" fill="#FFFFFF" transform="translate(0,0)"/>
<path d="" fill="#FFFFFF" transform="translate(0,0)"/>
<path d="" fill="#FFFFFF" transform="translate(0,0)"/>
<path d="" fill="#FFFFFF" transform="translate(0,0)"/>
<path d="" fill="#FFFFFF" transform="translate(0,0)"/>
<path d="" fill="#FFFFFF" transform="translate(0,0)"/>
<path d="" fill="#FFFFFF" transform="translate(0,0)"/>
<path d="" fill="#FFFFFF" transform="translate(0,0)"/>
<path d="" fill="#FFFFFF" transform="translate(0,0)"/>
<path d="" fill="#FFFFFF" transform="translate(0,0)"/>
<path d="" fill="#FFFFFF" transform="translate(0,0)"/>
<path d="" fill="#FFFFFF" transform="translate(0,0)"/>
<path d="" fill="#FFFFFF" transform="translate(0,0)"/>
<path d="" fill="#FFFFFF" transform="translate(0,0)"/>
<path d="" fill="#FFFFFF" transform="translate(0,0)"/>
<path d="" fill="#FFFFFF" transform="translate(0,0)"/>
<path d="" fill="#FFFFFF" transform="translate(0,0)"/>
<path d="" fill="#FFFFFF" transform="translate(0,0)"/>
<path d="" fill="#FFFFFF" transform="translate(0,0)"/>
<path d="" fill="#FFFFFF" transform="translate(0,0)"/>
<path d="" fill="#FFFFFF" transform="translate(0,0)"/>
<path d="" fill="#FFFFFF" transform="translate(0,0)"/>
<path d="" fill="#FFFFFF" transform="translate(0,0)"/>
<path d="" fill="#FFFFFF" transform="translate(0,0)"/>
<path d="" fill="#FFFFFF" transform="translate(0,0)"/>
<path d="" fill="#FFFFFF" transform="translate(0,0)"/>
<path d="" fill="#FFFFFF" transform="translate(0,0)"/>
<path d="" fill="#FFFFFF" transform="translate(0,0)"/>
<path d="" fill="#FFFFFF" transform="translate(0,0)"/>
<path d="" fill="#FFFFFF" transform="translate(0,0)"/>
<path d="" fill="#FFFFFF" transform="translate(0,0)"/>
<path d="" fill="#FFFFFF" transform="translate(0,0)"/>
<path d="" fill="#FFFFFF" transform="translate(0,0)"/>
<path d="" fill="#FFFFFF" transform="translate(0,0)"/>
<path d="" fill="#FFFFFF" transform="translate(0,0)"/>
<path d="" fill="#FFFFFF" transform="translate(0,0)"/>
<path d="" fill="#FFFFFF" transform="translate(0,0)"/>
<path d="" fill="#FFFFFF" transform="translate(0,0)"/>
<path d="" fill="#FFFFFF" transform="translate(0,0)"/>
<path d="" fill="#FFFFFF" transform="translate(0,0)"/>
<path d="" fill="#FFFFFF" transform="translate(0,0)"/>
<path d="" fill="#FFFFFF" transform="translate(0,0)"/>
<path d="" fill="#FFFFFF" transform="translate(0,0)"/>
<path d="" fill="#FFFFFF" transform="translate(0,0)"/>
<path d="" fill="#FFFFFF" transform="translate(0,0)"/>
<path d="" fill="#FFFFFF" transform="translate(0,0)"/>
<path d="" fill="#FFFFFF" transform="translate(0,0)"/>
<path d="" fill="#FFFFFF" transform="translate(0,0)"/>
<path d="" fill="#FFFFFF" transform="translate(0,0)"/>
<path d="" fill="#FFFFFF" transform="translate(0,0)"/>
<path d="" fill="#FFFFFF" transform="translate(0,0)"/>
<path d="" fill="#FFFFFF" transform="translate(0,0)"/>
<path d="" fill="#FFFFFF" transform="translate(0,0)"/>
<path d="" fill="#FFFFFF" transform="translate(0,0)"/>
<path d="" fill="#FFFFFF" transform="translate(0,0)"/>
<path d="" fill="#FFFFFF" transform="translate(0,0)"/>
<path d="" fill="#FFFFFF" transform="translate(0,0)"/>
<path d="" fill="#FFFFFF" transform="translate(0,0)"/>
<path d="" fill="#FFFFFF" transform="translate(0,0)"/>
<path d="" fill="#FFFFFF" transform="translate(0,0)"/>
<path d="" fill="#FFFFFF" transform="translate(0,0)"/>
<path d="" fill="#FFFFFF" transform="translate(0,0)"/>
<path d="" fill="#FFFFFF" transform="translate(0,0)"/>
<path d="" fill="#FFFFFF" transform="translate(0,0)"/>
<path d="" fill="#FFFFFF" transform="translate(0,0)"/>
<path d="" fill="#FFFFFF" transform="translate(0,0)"/>
<path d="" fill="#FFFFFF" transform="translate(0,0)"/>
<path d="" fill="#FFFFFF" transform="translate(0,0)"/>
<path d="" fill="#FFFFFF" transform="translate(0,0)"/>
<path d="" fill="#FFFFFF" transform="translate(0,0)"/>
<path d="" fill="#FFFFFF" transform="translate(0,0)"/>
<path d="" fill="#FFFFFF" transform="translate(0,0)"/>
<path d="" fill="#FFFFFF" transform="translate(0,0)"/>
<path d="" fill="#FFFFFF" transform="translate(0,0)"/>
<path d="" fill="#FFFFFF" transform="translate(0,0)"/>
<path d="" fill="#FFFFFF" transform="translate(0,0)"/>
<path d="" fill="#FFFFFF" transform="translate(0,0)"/>
<path d="" fill="#FFFFFF" transform="translate(0,0)"/>
<path d="" fill="#FFFFFF" transform="translate(0,0)"/>
<path d="" fill="#FFFFFF" transform="translate(0,0)"/>
<path d="" fill="#FFFFFF" transform="translate(0,0)"/>
<path d="" fill="#FFFFFF" transform="translate(0,0)"/>
<path d="" fill="#FFFFFF" transform="translate(0,0)"/>
<path d="" fill="#FFFFFF" transform="translate(0,0)"/>
<path d="" fill="#FFFFFF" transform="translate(0,0)"/>
<path d="" fill="#FFFFFF" transform="translate(0,0)"/>
<path d="" fill="#FFFFFF" transform="translate(0,0)"/>
</svg>
